<?xml version="1.0" encoding="UTF-8" standalone="no"?>
<!-- Created with Inkscape (http://www.inkscape.org/) -->

<svg
   width="100mm"
   height="75mm"
   viewBox="0 0 100 75"
   version="1.1"
   id="svg1377"
   inkscape:version="1.1 (c68e22c387, 2021-05-23)"
   sodipodi:docname="altheader.svg"
   xmlns:inkscape="http://www.inkscape.org/namespaces/inkscape"
   xmlns:sodipodi="http://sodipodi.sourceforge.net/DTD/sodipodi-0.dtd"
   xmlns="http://www.w3.org/2000/svg"
   xmlns:svg="http://www.w3.org/2000/svg">
  <sodipodi:namedview
     id="namedview1379"
     pagecolor="#ababab"
     bordercolor="#666666"
     borderopacity="1.0"
     inkscape:pageshadow="2"
     inkscape:pageopacity="0"
     inkscape:pagecheckerboard="true"
     inkscape:document-units="mm"
     showgrid="false"
     inkscape:zoom="4"
     inkscape:cx="-102.625"
     inkscape:cy="152.625"
     inkscape:window-width="1920"
     inkscape:window-height="1017"
     inkscape:window-x="-8"
     inkscape:window-y="-8"
     inkscape:window-maximized="1"
     inkscape:current-layer="g32603"
     inkscape:snap-global="false" />
  <defs
     id="defs1374" />
  <g
     inkscape:label="Layer 1"
     inkscape:groupmode="layer"
     id="layer1">
    <g
       id="g32815"
       transform="matrix(1.6034737,0,0,1.6034737,-61.788827,-51.472756)">
      <text
         xml:space="preserve"
         style="font-size:10.5833px;line-height:1.25;font-family:'RM Albion';-inkscape-font-specification:'RM Albion';letter-spacing:0px;word-spacing:0px;stroke-width:0.264583"
         x="42.83654"
         y="50.059952"
         id="text3442"><tspan
           sodipodi:role="line"
           id="tspan3440"
           style="font-style:normal;font-variant:normal;font-weight:bold;font-stretch:normal;font-family:'Century Schoolbook';-inkscape-font-specification:'Century Schoolbook';stroke-width:0.264583"
           x="42.83654"
           y="50.059952">C<tspan
   style="font-size:8.46667px"
   id="tspan20112">ROWN</tspan></tspan></text>
      <text
         xml:space="preserve"
         style="font-size:13.1012px;line-height:1.25;font-family:'RM Albion';-inkscape-font-specification:'RM Albion';letter-spacing:0px;word-spacing:0px;stroke-width:0.327531"
         x="43.227131"
         y="61.11755"
         id="text16126"><tspan
           sodipodi:role="line"
           id="tspan16124"
           style="font-style:normal;font-variant:normal;font-weight:bold;font-stretch:normal;font-family:'Century Schoolbook';-inkscape-font-specification:'Century Schoolbook';stroke-width:0.327531"
           x="43.227131"
           y="61.11755">T<tspan
   style="font-size:10.481px;stroke-width:0.327531"
   id="tspan21840">HORNS</tspan> </tspan></text>
      <text
         xml:space="preserve"
         style="font-size:7.38341px;line-height:1.25;font-family:'RM Albion';-inkscape-font-specification:'RM Albion';letter-spacing:0px;word-spacing:0px;stroke-width:0.184586"
         x="82.421158"
         y="50.103699"
         id="text26890"><tspan
           sodipodi:role="line"
           id="tspan26888"
           style="font-style:italic;font-variant:normal;font-weight:normal;font-stretch:normal;font-family:'Century Schoolbook';-inkscape-font-specification:'Century Schoolbook';stroke-width:0.184586"
           x="82.421158"
           y="50.103699">of</tspan></text>
      <text
         xml:space="preserve"
         style="font-size:7.38341px;line-height:1.25;font-family:'RM Albion';-inkscape-font-specification:'RM Albion';letter-spacing:0px;word-spacing:0px;stroke-width:0.184586"
         x="56.288601"
         y="41.653393"
         id="text31592"><tspan
           sodipodi:role="line"
           id="tspan31590"
           style="font-style:italic;font-variant:normal;font-weight:normal;font-stretch:normal;font-family:'Century Schoolbook';-inkscape-font-specification:'Century Schoolbook';stroke-width:0.184586"
           x="56.288601"
           y="41.653393">The</tspan></text>
      <g
         id="g37229"
         transform="matrix(0.97353501,0,0,0.97353501,-2.11258,1.8270279)">
        <text
           xml:space="preserve"
           style="font-size:16.7943px;line-height:1.25;font-family:'RM Albion';-inkscape-font-specification:'RM Albion';letter-spacing:0px;word-spacing:0px;stroke-width:0.419858"
           x="58.38261"
           y="75.001411"
           id="text28280"><tspan
             sodipodi:role="line"
             id="tspan28278"
             style="font-style:normal;font-variant:normal;font-weight:bold;font-stretch:normal;font-family:'Century Schoolbook';-inkscape-font-specification:'Century Schoolbook';stroke-width:0.419858"
             x="58.38261"
             y="75.001411">F<tspan
   style="font-size:13.4355px;stroke-width:0.419858"
   id="tspan28276">LAG</tspan></tspan></text>
        <g
           id="g32603"
           transform="matrix(2.3345078,0,0,2.3345078,10.665547,-61.747732)">
          <path
             id="path15391"
             style="fill:#000000;fill-opacity:1;stroke-width:52.524;stroke-linecap:round;stroke-linejoin:round;stop-color:#000000"
             d="M 58.730469 25.384766 L 49.697266 52.431641 L 24.298828 52.431641 L 24.298828 56.568359 L 93.164062 56.568359 L 93.164062 52.431641 L 67.763672 52.431641 L 58.730469 25.384766 z M -33.439453 63.564453 L -7.6542969 115.20898 C -11.976226 122.11522 -15.191505 129.65489 -17.183594 137.55469 L -17.21875 137.56641 C -17.020818 136.74754 -16.80847 135.93195 -16.583984 135.11914 C -24.060825 132.37145 -30.6197 127.58486 -35.517578 121.30273 L -44.570312 121.30273 L -44.570312 146.70117 L -71.619141 155.73438 L -44.570312 164.76758 L -44.570312 190.17383 L -35.517578 190.17383 C -30.630443 183.9008 -24.087403 179.11788 -16.626953 176.36523 C -16.852176 175.54295 -17.063704 174.71709 -17.261719 173.88867 L -17.183594 173.91406 C -15.191505 181.81386 -11.976226 189.35353 -7.6542969 196.25977 L -33.439453 247.90625 L 18.207031 222.11914 C 25.11267 226.44088 32.651659 229.65616 40.550781 231.64844 L 40.578125 231.72852 C 39.749677 231.53046 38.92388 231.31905 38.101562 231.09375 C 35.350849 238.55324 30.569242 245.09628 24.298828 249.98438 L 24.298828 259.03711 L 49.697266 259.03711 L 58.730469 286.08594 L 67.763672 259.03711 L 93.164062 259.03711 L 93.164062 249.98438 C 86.884701 245.08567 82.101228 238.52666 79.355469 231.05078 C 78.539773 231.27602 77.720229 231.4871 76.898438 231.68555 L 76.910156 231.64844 C 84.809955 229.65635 92.349621 226.44107 99.255859 222.11914 L 101.12695 223.05273 L 101.12695 184.83008 L 89.964844 184.83008 C 82.163492 193.20001 71.074918 198.46536 58.730469 198.46484 C 35.130809 198.46475 15.999224 179.334 15.998047 155.73438 C 15.998078 147.34511 18.445688 139.54527 22.626953 132.94922 L 22.626953 86.820312 C 21.128678 87.61695 19.64726 88.447092 18.205078 89.349609 L -33.439453 63.564453 z "
             transform="matrix(0.07260286,0,0,0.07260286,13.31602,39.770464)" />
          <g
             id="g15419"
             transform="matrix(0,0.49664007,-0.49664007,0,90.44467,39.110382)"
             style="fill:#000000"
             inkscape:export-filename="C:\Users\Garrett\Pictures\Ornate Christian Flag 3.png"
             inkscape:export-xdpi="400"
             inkscape:export-ydpi="400">
            <g
               id="g15411"
               transform="rotate(135,24.157249,146.8637)"
               style="fill:#000000" />
            <g
               id="g15417"
               transform="matrix(0.70710678,0.70710678,0.70710678,-0.70710678,-96.895941,233.63026)"
               style="fill:#000000" />
          </g>
          <path
             id="path51164"
             style="fill:#000000;fill-opacity:1;stroke-width:3.81339;stroke-linecap:round;stroke-linejoin:round;stop-color:#000000"
             d="m -27.186695,64.407532 -0.655836,1.96368 h -1.843999 v 0.657396 c 0.4561,0.3556 0.80362,0.831794 1.00311,1.374634 0.05898,-0.01631 0.118262,-0.03157 0.177679,-0.04595 l -8.51e-4,0.0024 a 5.6731581,5.6731581 0 0 0 -1.622362,0.691854 l -3.749541,-1.872076 1.872076,3.749541 a 5.6731581,5.6731581 0 0 0 -0.691854,1.622362 l -0.0026,8.51e-4 c 0.01437,-0.05945 0.02979,-0.118666 0.04609,-0.177679 -0.54284,-0.19949 -1.019034,-0.54701 -1.374633,-1.003111 h -0.657255 v 1.844 l -1.963822,0.655837 1.963822,0.655836 v 1.844566 h 0.657255 c 0.35482,-0.45544 0.829863,-0.802693 1.371513,-1.002544 -0.01635,-0.0597 -0.03171,-0.119659 -0.04609,-0.179805 l 0.0057,0.0018 a 5.6731581,5.6731581 0 0 0 0.691854,1.622363 l -1.872076,3.749682 3.749683,-1.872218 a 5.6731581,5.6731581 0 0 0 1.62222,0.691854 l 0.002,0.0058 c -0.06015,-0.01438 -0.120103,-0.02973 -0.179805,-0.04609 -0.19971,0.541581 -0.546868,1.016624 -1.002118,1.371514 v 0.657254 h 1.843999 l 0.655836,1.963823 0.655837,-1.963823 h 1.844141 v -0.657254 c -0.4559,-0.35566 -0.803194,-0.831863 -1.002544,-1.374633 -0.05922,0.01635 -0.118723,0.03168 -0.178387,0.04609 l 8.51e-4,-0.0027 a 5.6731581,5.6731581 0 0 0 1.622362,-0.691854 l 3.749682,1.872218 -1.872076,-3.749682 a 5.6731581,5.6731581 0 0 0 0.691854,-1.622363 l 0.0026,-8.51e-4 c -0.0144,0.05947 -0.02976,0.118789 -0.04609,0.177821 0.542899,0.19964 1.019113,0.547256 1.374633,1.003536 h 0.657254 v -1.844566 l 1.963822,-0.655836 -1.963822,-0.655837 v -1.844 h -0.657254 c -0.35559,0.456091 -0.831794,0.803621 -1.374633,1.003111 0.01631,0.05901 0.0317,0.11823 0.04609,0.177679 l -0.0026,-8.51e-4 a 5.6731581,5.6731581 0 0 0 -0.691854,-1.622362 l 1.872076,-3.749541 -3.749682,1.872076 a 5.6731581,5.6731581 0 0 0 -1.622362,-0.691854 l -8.51e-4,-0.0027 c 0.05966,0.01444 0.119167,0.02985 0.178387,0.04623 0.19935,-0.54278 0.546644,-1.018964 1.002544,-1.374634 V 66.37113 h -1.844141 z m 0,6.361258 a 3.1025084,3.1025084 0 0 1 3.102638,3.102497 3.1025084,3.1025084 0 0 1 -3.102638,3.102353 3.1025084,3.1025084 0 0 1 -3.102496,-3.102353 3.1025084,3.1025084 0 0 1 3.102496,-3.102497 z m 0,1.094573 a 2.0079626,2.0079626 0 0 0 -2.007923,2.007924 2.0079626,2.0079626 0 0 0 2.007923,2.008064 2.0079626,2.0079626 0 0 0 2.008065,-2.008064 2.0079626,2.0079626 0 0 0 -2.008065,-2.007924 z" />
        </g>
      </g>
    </g>
  </g>
</svg>
