<?xml version="1.0" encoding="UTF-8" standalone="no"?>
<!-- Created with Inkscape (http://www.inkscape.org/) -->

<svg
   width="60mm"
   height="30mm"
   viewBox="0 0 60 30"
   version="1.1"
   id="svg1377"
   inkscape:version="1.1 (c68e22c387, 2021-05-23)"
   sodipodi:docname="crownexplainer.svg"
   xmlns:inkscape="http://www.inkscape.org/namespaces/inkscape"
   xmlns:sodipodi="http://sodipodi.sourceforge.net/DTD/sodipodi-0.dtd"
   xmlns="http://www.w3.org/2000/svg"
   xmlns:svg="http://www.w3.org/2000/svg">
  <sodipodi:namedview
     id="namedview1379"
     pagecolor="#ababab"
     bordercolor="#666666"
     borderopacity="1.0"
     inkscape:pageshadow="2"
     inkscape:pageopacity="0"
     inkscape:pagecheckerboard="true"
     inkscape:document-units="mm"
     showgrid="false"
     inkscape:zoom="2.2274261"
     inkscape:cx="70.709417"
     inkscape:cy="48.261983"
     inkscape:window-width="1920"
     inkscape:window-height="1017"
     inkscape:window-x="-8"
     inkscape:window-y="-8"
     inkscape:window-maximized="1"
     inkscape:current-layer="g37229" />
  <defs
     id="defs1374" />
  <g
     inkscape:label="Layer 1"
     inkscape:groupmode="layer"
     id="layer1">
    <g
       id="g32815"
       transform="matrix(1.6034737,0,0,1.6034737,-61.788827,-51.472756)">
      <g
         id="g37229"
         transform="matrix(0.97353501,0,0,0.97353501,-2.11258,1.8270279)">
        <g
           id="g52386"
           transform="translate(22.305159,-18.322028)">
          <path
             id="path15391"
             style="fill:#000000;fill-opacity:1;stroke-width:2.2182;stroke-linecap:round;stroke-linejoin:round;stop-color:#000000"
             d="m 55.184162,57.573618 h -0.382361 c -0.206842,0.265302 -0.483818,0.467415 -0.799581,0.583456 0.0784,0.283555 0.118536,0.576324 0.119333,0.870524 -5.82e-4,0.294299 -0.04089,0.587167 -0.119333,0.87082 0.315798,0.116128 0.59278,0.318346 0.799581,0.583758 h 0.382361 z m -2.908565,-2.90856 H 49.36734 v 0.382355 c 0.265308,0.206848 0.467415,0.483825 0.583456,0.799588 0.283654,-0.07843 0.576528,-0.118571 0.870827,-0.119339 0.294299,5.81e-4 0.587167,0.04089 0.870821,0.119339 0.115959,-0.315729 0.317962,-0.592699 0.583153,-0.799588 z m 0,8.343021 c -0.265191,-0.206883 -0.467194,-0.48386 -0.583153,-0.799582 -0.283666,0.07833 -0.57654,0.118362 -0.870821,0.119036 -0.294404,-3.5e-5 -0.587481,-0.03944 -0.871426,-0.117233 -0.116169,0.31503 -0.318044,0.591343 -0.582857,0.797779 v 0.38236 h 2.908257 z M 47.640723,58.157074 C 47.32496,58.041033 47.047984,57.838925 46.841136,57.573618 h -0.382355 v 2.908558 h 0.382355 c 0.206394,-0.264923 0.482707,-0.466903 0.797778,-0.583153 -0.07777,-0.283944 -0.117198,-0.577022 -0.117227,-0.871425 5.81e-4,-0.294183 0.04072,-0.586952 0.119036,-0.870524 z"
             sodipodi:nodetypes="cccccccccccccccccccccccccccccccc"
             inkscape:export-filename="C:\Users\Garrett\Pictures\Ornate Christian Flag 3.png"
             inkscape:export-xdpi="400"
             inkscape:export-ydpi="400" />
          <g
             id="g15419"
             transform="matrix(0,0.28888929,-0.28888929,0,93.205882,52.06676)"
             style="fill:#000000"
             inkscape:export-filename="C:\Users\Garrett\Pictures\Ornate Christian Flag 3.png"
             inkscape:export-xdpi="400"
             inkscape:export-ydpi="400">
            <path
               id="path15393"
               style="fill:#000000;fill-opacity:1;stroke:none;stroke-width:9.99999;stroke-linecap:round;stroke-linejoin:round;stop-color:#000000"
               d="M 91.070312,511.33984 A 43.173837,43.173837 0 0 0 47.896484,554.51367 43.173837,43.173837 0 0 0 91.070312,597.6875 43.173837,43.173837 0 0 0 134.24414,554.51367 43.173837,43.173837 0 0 0 91.070312,511.33984 Z m 0,19.5625 A 23.610693,23.610693 0 0 1 114.67969,554.51367 23.610693,23.610693 0 0 1 91.070312,578.125 23.610693,23.610693 0 0 1 67.458984,554.51367 23.610693,23.610693 0 0 1 91.070312,530.90234 Z"
               transform="scale(0.26458333)" />
            <g
               id="g15399"
               transform="translate(0,-0.29724666)"
               style="fill:#000000">
              <path
                 id="path15395"
                 style="fill:#000000;stroke-width:2.64583;stroke-linecap:round;stroke-linejoin:round;stop-color:#000000"
                 inkscape:transform-center-y="-0.96698443"
                 d="M 27.445413,137.98658 H 20.745959 L 24.095686,127.9567 Z"
                 sodipodi:nodetypes="cccc" />
              <path
                 id="path15397"
                 style="fill:#000000;stroke-width:2.64583;stroke-linecap:round;stroke-linejoin:round;stop-color:#000000"
                 inkscape:transform-center-y="0.96698443"
                 d="m 27.445413,156.03806 h -6.699454 l 3.349727,10.02988 z"
                 sodipodi:nodetypes="cccc" />
            </g>
            <g
               id="g15405"
               transform="rotate(90,24.244309,146.8637)"
               style="fill:#000000">
              <path
                 id="path15401"
                 style="fill:#000000;stroke-width:2.64583;stroke-linecap:round;stroke-linejoin:round;stop-color:#000000"
                 inkscape:transform-center-y="-0.96698443"
                 d="M 27.445413,137.98658 H 20.745959 L 24.095686,127.9567 Z"
                 sodipodi:nodetypes="cccc" />
              <path
                 id="path15403"
                 style="fill:#000000;stroke-width:2.64583;stroke-linecap:round;stroke-linejoin:round;stop-color:#000000"
                 inkscape:transform-center-y="0.96698443"
                 d="m 27.445413,156.03806 h -6.699454 l 3.349727,10.02988 z"
                 sodipodi:nodetypes="cccc" />
            </g>
            <g
               id="g15411"
               transform="rotate(135,24.157249,146.8637)"
               style="fill:#000000">
              <path
                 id="path15407"
                 style="fill:#000000;stroke-width:2.64583;stroke-linecap:round;stroke-linejoin:round;stop-color:#000000"
                 inkscape:transform-center-y="-0.96698443"
                 d="M 27.445413,137.98658 H 20.745959 L 24.095686,127.9567 Z"
                 sodipodi:nodetypes="cccc" />
              <path
                 id="path15409"
                 style="fill:#000000;stroke-width:2.64583;stroke-linecap:round;stroke-linejoin:round;stop-color:#000000"
                 inkscape:transform-center-y="0.96698443"
                 d="m 27.445413,156.03806 h -6.699454 l 3.349727,10.02988 z"
                 sodipodi:nodetypes="cccc" />
            </g>
            <g
               id="g15417"
               transform="matrix(0.70710678,0.70710678,0.70710678,-0.70710678,-96.895941,233.63026)"
               style="fill:#000000">
              <path
                 id="path15413"
                 style="fill:#000000;stroke-width:2.64583;stroke-linecap:round;stroke-linejoin:round;stop-color:#000000"
                 inkscape:transform-center-y="-0.96698443"
                 d="M 27.445413,137.98658 H 20.745959 L 24.095686,127.9567 Z"
                 sodipodi:nodetypes="cccc" />
              <path
                 id="path15415"
                 style="fill:#000000;stroke-width:2.64583;stroke-linecap:round;stroke-linejoin:round;stop-color:#000000"
                 inkscape:transform-center-y="0.96698443"
                 d="m 27.445413,156.03806 h -6.699454 l 3.349727,10.02988 z"
                 sodipodi:nodetypes="cccc" />
            </g>
          </g>
          <circle
             style="fill:#000000;fill-opacity:1;stroke:none;stroke-width:1.53905;stroke-linecap:round;stroke-linejoin:round;stop-color:#000000"
             id="circle15421"
             cx="59.027756"
             cy="-50.821461"
             r="1.1680067"
             inkscape:export-filename="C:\Users\Garrett\Pictures\Ornate Christian Flag 3.png"
             inkscape:export-xdpi="400"
             inkscape:export-ydpi="400"
             transform="rotate(90)" />
        </g>
        <g
           id="g52337"
           transform="matrix(0,0.28888929,-0.28888929,0,91.197554,33.744732)"
           style="fill:#000000"
           inkscape:export-filename="C:\Users\Garrett\Pictures\Ornate Christian Flag 3.png"
           inkscape:export-xdpi="400"
           inkscape:export-ydpi="400">
          <path
             id="path52311"
             style="fill:#000000;fill-opacity:1;stroke:none;stroke-width:9.99999;stroke-linecap:round;stroke-linejoin:round;stop-color:#000000"
             d="M 91.070312,511.33984 A 43.173837,43.173837 0 0 0 47.896484,554.51367 43.173837,43.173837 0 0 0 91.070312,597.6875 43.173837,43.173837 0 0 0 134.24414,554.51367 43.173837,43.173837 0 0 0 91.070312,511.33984 Z m 0,19.5625 A 23.610693,23.610693 0 0 1 114.67969,554.51367 23.610693,23.610693 0 0 1 91.070312,578.125 23.610693,23.610693 0 0 1 67.458984,554.51367 23.610693,23.610693 0 0 1 91.070312,530.90234 Z"
             transform="scale(0.26458333)" />
          <g
             id="g52317"
             transform="translate(0,-0.29724666)"
             style="fill:#000000">
            <path
               id="path52313"
               style="fill:#000000;stroke-width:2.64583;stroke-linecap:round;stroke-linejoin:round;stop-color:#000000"
               inkscape:transform-center-y="-0.96698443"
               d="M 27.445413,137.98658 H 20.745959 L 24.095686,127.9567 Z"
               sodipodi:nodetypes="cccc" />
            <path
               id="path52315"
               style="fill:#000000;stroke-width:2.64583;stroke-linecap:round;stroke-linejoin:round;stop-color:#000000"
               inkscape:transform-center-y="0.96698443"
               d="m 27.445413,156.03806 h -6.699454 l 3.349727,10.02988 z"
               sodipodi:nodetypes="cccc" />
          </g>
          <g
             id="g52323"
             transform="rotate(90,24.244309,146.8637)"
             style="fill:#000000">
            <path
               id="path52319"
               style="fill:#000000;stroke-width:2.64583;stroke-linecap:round;stroke-linejoin:round;stop-color:#000000"
               inkscape:transform-center-y="-0.96698443"
               d="M 27.445413,137.98658 H 20.745959 L 24.095686,127.9567 Z"
               sodipodi:nodetypes="cccc" />
            <path
               id="path52321"
               style="fill:#000000;stroke-width:2.64583;stroke-linecap:round;stroke-linejoin:round;stop-color:#000000"
               inkscape:transform-center-y="0.96698443"
               d="m 27.445413,156.03806 h -6.699454 l 3.349727,10.02988 z"
               sodipodi:nodetypes="cccc" />
          </g>
          <g
             id="g52329"
             transform="rotate(135,24.157249,146.8637)"
             style="fill:#000000">
            <path
               id="path52325"
               style="fill:#000000;stroke-width:2.64583;stroke-linecap:round;stroke-linejoin:round;stop-color:#000000"
               inkscape:transform-center-y="-0.96698443"
               d="M 27.445413,137.98658 H 20.745959 L 24.095686,127.9567 Z"
               sodipodi:nodetypes="cccc" />
            <path
               id="path52327"
               style="fill:#000000;stroke-width:2.64583;stroke-linecap:round;stroke-linejoin:round;stop-color:#000000"
               inkscape:transform-center-y="0.96698443"
               d="m 27.445413,156.03806 h -6.699454 l 3.349727,10.02988 z"
               sodipodi:nodetypes="cccc" />
          </g>
          <g
             id="g52335"
             transform="matrix(0.70710678,0.70710678,0.70710678,-0.70710678,-96.895941,233.63026)"
             style="fill:#000000">
            <path
               id="path52331"
               style="fill:#000000;stroke-width:2.64583;stroke-linecap:round;stroke-linejoin:round;stop-color:#000000"
               inkscape:transform-center-y="-0.96698443"
               d="M 27.445413,137.98658 H 20.745959 L 24.095686,127.9567 Z"
               sodipodi:nodetypes="cccc" />
            <path
               id="path52333"
               style="fill:#000000;stroke-width:2.64583;stroke-linecap:round;stroke-linejoin:round;stop-color:#000000"
               inkscape:transform-center-y="0.96698443"
               d="m 27.445413,156.03806 h -6.699454 l 3.349727,10.02988 z"
               sodipodi:nodetypes="cccc" />
          </g>
        </g>
        <path
           id="path50700"
           style="fill:#000000;fill-opacity:1;stroke-width:2.21716;stroke-linecap:round;stroke-linejoin:round;stop-color:#000000"
           d="m 59.516448,36.346067 v 0.38218 a 1.8012487,1.8012487 0 0 1 0.695551,1.419039 1.8012487,1.8012487 0 0 1 -1.801527,1.801224 1.8012487,1.8012487 0 0 1 -1.419045,-0.695254 h -0.38218 v 2.906892 h 0.38218 a 1.8012487,1.8012487 0 0 1 1.419045,-0.695247 1.8012487,1.8012487 0 0 1 1.801527,1.801218 1.8012487,1.8012487 0 0 1 -0.695551,1.419044 v 0.382175 h 2.907183 v -0.382175 a 1.8012487,1.8012487 0 0 1 -0.69555,-1.419044 1.8012487,1.8012487 0 0 1 1.801218,-1.801218 1.8012487,1.8012487 0 0 1 1.419045,0.695247 h 0.38218 v -2.906892 h -0.38218 a 1.8012487,1.8012487 0 0 1 -1.419045,0.695254 1.8012487,1.8012487 0 0 1 -1.801218,-1.801224 1.8012487,1.8012487 0 0 1 0.69555,-1.419039 v -0.38218 z"
           inkscape:export-filename="C:\Users\Garrett\Pictures\Christian Banner 1.png"
           inkscape:export-xdpi="400"
           inkscape:export-ydpi="400" />
      </g>
    </g>
  </g>
</svg>
