<?xml version="1.0" encoding="UTF-8" standalone="no"?>
<!-- Created with Inkscape (http://www.inkscape.org/) -->

<svg
   width="100mm"
   height="75mm"
   viewBox="0 0 100 75"
   version="1.1"
   id="svg1377"
   inkscape:version="1.1 (c68e22c387, 2021-05-23)"
   sodipodi:docname="header.svg"
   xmlns:inkscape="http://www.inkscape.org/namespaces/inkscape"
   xmlns:sodipodi="http://sodipodi.sourceforge.net/DTD/sodipodi-0.dtd"
   xmlns="http://www.w3.org/2000/svg"
   xmlns:svg="http://www.w3.org/2000/svg">
  <sodipodi:namedview
     id="namedview1379"
     pagecolor="#ababab"
     bordercolor="#666666"
     borderopacity="1.0"
     inkscape:pageshadow="2"
     inkscape:pageopacity="0"
     inkscape:pagecheckerboard="true"
     inkscape:document-units="mm"
     showgrid="false"
     inkscape:zoom="1.5750281"
     inkscape:cx="107.61713"
     inkscape:cy="80.316027"
     inkscape:window-width="1920"
     inkscape:window-height="1017"
     inkscape:window-x="-8"
     inkscape:window-y="-8"
     inkscape:window-maximized="1"
     inkscape:current-layer="g32815" />
  <defs
     id="defs1374" />
  <g
     inkscape:label="Layer 1"
     inkscape:groupmode="layer"
     id="layer1">
    <g
       id="g32815"
       transform="matrix(1.6034737,0,0,1.6034737,-61.788827,-51.472756)">
      <g
         aria-label="CROWN"
         id="text3442"
         style="font-size:10.5833px;line-height:1.25;font-family:'RM Albion';-inkscape-font-specification:'RM Albion';letter-spacing:0px;word-spacing:0px;stroke-width:0.264583">
        <path
           d="m 49.378756,42.990638 0.356566,-0.759641 h 0.382404 l 0.129191,3.064403 h -0.475422 q -0.222208,-1.322913 -0.837155,-1.963698 -0.614948,-0.640786 -1.405595,-0.640786 -0.868161,0 -1.4366,0.82682 -0.568439,0.826821 -0.568439,2.609652 0,1.886184 0.625283,2.800854 0.50126,0.7183 1.477941,0.7183 0.976682,0 1.643306,-0.7183 0.480589,-0.521931 0.671791,-1.539953 h 0.465086 q -0.165364,1.307409 -0.997352,2.06705 -0.831987,0.759642 -2.04638,0.759642 -1.570958,0 -2.635489,-1.105873 -1.059364,-1.111039 -1.059364,-2.842194 0,-1.922357 1.224728,-3.069571 1.04386,-0.976681 2.444287,-0.976681 0.552936,0 1.02319,0.175699 0.475422,0.170532 1.018023,0.594277 z"
           style="font-weight:bold;font-family:'Century Schoolbook';-inkscape-font-specification:'Century Schoolbook'"
           id="path875" />
        <path
           d="m 51.568798,43.945594 h 3.191538 q 0.777214,0 1.265039,0.202572 0.49196,0.198437 0.731739,0.545703 0.239779,0.343132 0.239779,0.764811 0,0.673861 -0.603581,1.091407 -0.458887,0.318327 -1.413868,0.413412 0.479558,0.07855 0.735873,0.252181 0.260449,0.169499 0.458887,0.508496 0.260449,0.446485 0.425814,1.070736 0.103353,0.401009 0.181901,0.504362 0.07855,0.103353 0.177767,0.103353 0.272851,0 0.326595,-0.72347 h 0.363802 q -0.04134,0.768946 -0.343131,1.103809 -0.301791,0.330729 -0.851628,0.330729 -0.392741,0 -0.63252,-0.16123 -0.235645,-0.161231 -0.359668,-0.471289 -0.07441,-0.177767 -0.206706,-0.835092 -0.152962,-0.768946 -0.276986,-1.033529 -0.119889,-0.264583 -0.314193,-0.392741 -0.194303,-0.128158 -0.479557,-0.128158 h -0.450619 v 2.253094 q 0,0.148828 0.08682,0.227376 0.124023,0.103353 0.289388,0.103353 h 0.553971 v 0.384473 h -3.096453 v -0.384473 h 0.479558 q 0.186035,0 0.28112,-0.09509 0.09508,-0.09922 0.09508,-0.272851 v -4.60954 q 0,-0.190169 -0.08682,-0.276986 -0.08682,-0.09095 -0.248047,-0.09095 h -0.520899 z m 2.166277,2.773992 h 0.516765 q 0.686263,0 1.083138,-0.3514 0.297656,-0.268718 0.297656,-0.905371 0,-0.587045 -0.293522,-0.855763 -0.293522,-0.272851 -1.016992,-0.272851 -0.388607,0 -0.487826,0.08682 -0.09922,0.08268 -0.09922,0.376205 z"
           style="font-size:8.46667px"
           id="path877" />
        <path
           d="m 61.465873,43.788497 q 0.86403,0 1.591635,0.417546 0.731738,0.417546 1.136882,1.141016 0.409277,0.719337 0.409277,1.624708 0,1.376661 -0.901237,2.294434 -0.897104,0.917774 -2.228289,0.917774 -0.884701,0 -1.587501,-0.417545 -0.698665,-0.417546 -1.103809,-1.12448 -0.405143,-0.711068 -0.405143,-1.649512 0,-1.393198 0.888835,-2.298569 0.888835,-0.905372 2.19935,-0.905372 z m 0.02481,0.396876 q -0.49196,0 -0.855763,0.272851 -0.359668,0.268718 -0.574642,0.872299 -0.21084,0.603581 -0.21084,1.653646 0,1.103809 0.194304,1.674317 0.198437,0.566374 0.574642,0.839226 0.376205,0.272852 0.876433,0.272852 0.740006,0 1.182357,-0.63252 0.44235,-0.636654 0.44235,-2.207618 0,-1.099675 -0.190169,-1.649513 -0.190169,-0.553971 -0.566374,-0.822689 -0.376205,-0.272851 -0.872298,-0.272851 z"
           style="font-size:8.46667px"
           id="path879" />
        <path
           d="m 64.719421,43.945594 h 2.459799 v 0.384473 h -0.23151 q -0.219108,0 -0.297657,0.05374 -0.07441,0.04961 -0.07441,0.152963 0,0.07441 0.02894,0.169498 l 1.21543,3.609084 1.058334,-3.150197 -0.181901,-0.525033 q -0.05788,-0.165364 -0.161231,-0.227376 -0.136425,-0.08268 -0.359668,-0.08268 h -0.297656 v -0.384473 h 2.83187 v 0.384473 h -0.26045 q -0.285254,0 -0.388607,0.06615 -0.09922,0.06614 -0.09922,0.194303 0,0.05374 0.02067,0.115755 l 1.207162,3.609084 1.012859,-3.179136 q 0.04961,-0.144694 0.04961,-0.28112 0,-0.252181 -0.136426,-0.388606 -0.132292,-0.136426 -0.3514,-0.136426 h -0.173633 v -0.384473 h 1.992644 v 0.384473 q -0.330729,0.0083 -0.529167,0.157096 -0.194303,0.144694 -0.285254,0.434082 l -1.694987,5.250328 H 70.565061 L 69.126389,45.88036 67.683582,50.171573 H 67.17922 L 65.3106,44.640125 q -0.05788,-0.173632 -0.152963,-0.239778 -0.09508,-0.07028 -0.243912,-0.07028 h -0.194304 z"
           style="font-size:8.46667px"
           id="path881" />
        <path
           d="m 73.636711,43.945594 h 1.89756 l 3.311427,4.191994 v -2.848406 q 0,-0.42168 -0.239779,-0.673861 -0.239779,-0.256315 -0.682129,-0.285254 v -0.384473 h 2.232423 v 0.384473 q -0.467156,0.04961 -0.669727,0.28112 -0.202572,0.227376 -0.202572,0.677995 v 4.77077 h -0.475423 l -3.770314,-4.828648 v 3.3445 q 0,0.574642 0.260449,0.839226 0.264583,0.260449 0.65319,0.260449 h 0.103353 v 0.384473 h -2.468067 v -0.384473 h 0.169499 q 0.363802,0 0.611849,-0.289388 0.248047,-0.289388 0.248047,-0.744141 v -3.952215 q -0.276986,-0.359668 -0.706934,-0.359668 h -0.272852 z"
           style="font-size:8.46667px"
           id="path883" />
      </g>
      <g
         aria-label="THORNS "
         id="text16126"
         style="font-size:13.1012px;line-height:1.25;font-family:'RM Albion';-inkscape-font-specification:'RM Albion';letter-spacing:0px;word-spacing:0px;stroke-width:0.327531">
        <path
           d="m 43.873235,51.656283 h 8.271412 l 0.211103,3.595153 h -0.582133 q -0.204706,-1.151472 -0.530957,-1.797576 -0.326251,-0.646105 -0.748457,-0.914781 -0.41581,-0.275074 -0.914781,-0.275074 -0.287868,0 -0.422207,0.121544 -0.134338,0.115147 -0.134338,0.339045 v 7.318248 q 0,0.211103 0.127941,0.345442 0.134339,0.134338 0.319854,0.134338 h 1.074707 v 0.594928 h -5.060082 v -0.594928 h 1.023531 q 0.230295,0 0.364633,-0.127941 0.134338,-0.134339 0.134338,-0.351839 v -7.279866 q 0,-0.255883 -0.140735,-0.377427 -0.134339,-0.121544 -0.428604,-0.121544 -1.631253,0 -2.206989,2.987431 h -0.562942 z"
           style="font-weight:bold;font-family:'Century Schoolbook';-inkscape-font-specification:'Century Schoolbook'"
           id="path862" />
        <path
           d="m 53.25646,53.548507 h 3.505608 v 0.475944 h -0.516885 q -0.22006,0 -0.327531,0.09724 -0.107471,0.09724 -0.107471,0.261002 v 2.482072 H 58.69655 V 54.51063 q 0,-0.271236 -0.117707,-0.378708 -0.112589,-0.107471 -0.383826,-0.107471 h -0.44012 v -0.475944 h 3.510726 v 0.475944 h -0.470826 q -0.271237,0 -0.383826,0.102354 -0.112589,0.102353 -0.112589,0.317296 v 5.716444 q 0,0.250766 0.112589,0.368472 0.117707,0.112589 0.327531,0.112589 h 0.527121 v 0.475944 h -3.510726 v -0.475944 h 0.532239 q 0.22006,0 0.312178,-0.09724 0.09724,-0.09724 0.09724,-0.327531 v -2.722604 h -2.886369 v 2.722604 q 0,0.22006 0.09212,0.322414 0.09212,0.102353 0.250766,0.102353 h 0.609003 V 61.11755 H 53.25646 v -0.475944 h 0.562945 q 0.194471,0 0.281472,-0.09724 0.09212,-0.102353 0.09212,-0.327531 V 54.51063 q 0,-0.266119 -0.117707,-0.37359 -0.117706,-0.112589 -0.378708,-0.112589 h -0.44012 z"
           style="font-size:10.481px"
           id="path864" />
        <path
           d="m 66.137652,53.354036 q 1.069594,0 1.970305,0.516885 0.905828,0.516885 1.407361,1.412479 0.506649,0.890475 0.506649,2.011246 0,1.704186 -1.115653,2.84031 -1.110536,1.136124 -2.758427,1.136124 -1.095183,0 -1.965188,-0.516885 -0.864887,-0.516885 -1.366419,-1.392008 -0.501532,-0.88024 -0.501532,-2.041953 0,-1.724656 1.1003,-2.845427 1.1003,-1.120771 2.722604,-1.120771 z m 0.03071,0.491297 q -0.609004,0 -1.059359,0.337766 -0.445238,0.332649 -0.711357,1.07983 -0.261002,0.74718 -0.261002,2.04707 0,1.36642 0.240531,2.072659 0.245649,0.701121 0.711357,1.038888 0.465708,0.337767 1.084947,0.337767 0.916064,0 1.463656,-0.783005 0.547591,-0.788122 0.547591,-2.732839 0,-1.361301 -0.235413,-2.041952 -0.235413,-0.685769 -0.701122,-1.018418 -0.465708,-0.337766 -1.079829,-0.337766 z"
           style="font-size:10.481px"
           id="path866" />
        <path
           d="m 71.158091,53.548507 h 3.950846 q 0.962123,0 1.566009,0.250767 0.609003,0.245648 0.905829,0.675533 0.296825,0.424767 0.296825,0.94677 0,0.834181 -0.747181,1.351066 -0.568062,0.394061 -1.750245,0.511768 0.59365,0.09724 0.910946,0.312178 0.322414,0.209825 0.568062,0.629474 0.322414,0.552709 0.527121,1.325478 0.127942,0.496415 0.225178,0.624357 0.09723,0.127941 0.22006,0.127941 0.337766,0 0.404296,-0.895593 h 0.450355 q -0.05118,0.951888 -0.424767,1.36642 -0.37359,0.409414 -1.054241,0.409414 -0.486179,0 -0.783004,-0.19959 -0.291708,-0.199589 -0.445238,-0.583415 -0.09212,-0.22006 -0.255884,-1.03377 Q 75.533704,58.415417 75.380174,58.087886 75.231761,57.760355 74.991231,57.601707 74.7507,57.443059 74.39758,57.443059 h -0.557826 v 2.789133 q 0,0.184236 0.107471,0.281472 0.15353,0.127942 0.358237,0.127942 h 0.685769 v 0.475944 h -3.83314 v -0.475944 h 0.593651 q 0.230295,0 0.348002,-0.117706 0.117706,-0.122825 0.117706,-0.337767 v -5.706209 q 0,-0.235413 -0.107471,-0.342884 -0.107471,-0.112589 -0.30706,-0.112589 h -0.644828 z m 2.681663,3.433961 h 0.639709 q 0.849534,0 1.340831,-0.435003 0.368473,-0.332648 0.368473,-1.120771 0,-0.72671 -0.363355,-1.059358 -0.363355,-0.337767 -1.258948,-0.337767 -0.481062,0 -0.603886,0.107471 -0.122824,0.102354 -0.122824,0.465709 z"
           style="font-size:10.481px"
           id="path868" />
        <path
           d="m 79.464079,53.548507 h 2.349013 l 4.099259,5.189324 v -3.526079 q 0,-0.522003 -0.296825,-0.834181 -0.296826,-0.317296 -0.844417,-0.35312 v -0.475944 h 2.763545 v 0.475944 q -0.578297,0.06141 -0.829064,0.348002 -0.250766,0.281472 -0.250766,0.839299 v 5.905798 h -0.588532 l -4.667321,-5.977445 v 4.140199 q 0,0.711357 0.322414,1.038888 0.327531,0.322414 0.808593,0.322414 h 0.127942 v 0.475944 h -3.055253 v -0.475944 h 0.209825 q 0.450355,0 0.757416,-0.358237 0.30706,-0.358238 0.30706,-0.921182 v -4.892498 q -0.342884,-0.445238 -0.875122,-0.445238 h -0.337767 z"
           style="font-size:10.481px"
           id="path870" />
        <path
           d="m 92.995214,54.126805 0.475944,-0.675533 h 0.363355 l 0.04606,2.615132 h -0.460591 q -0.358237,-1.125889 -1.018417,-1.683715 -0.660181,-0.562945 -1.458538,-0.562945 -0.680651,0 -1.110536,0.373591 -0.424767,0.368472 -0.424767,0.885358 0,0.30706 0.168884,0.562944 0.168883,0.255884 0.542473,0.44012 0.378708,0.179119 1.320361,0.37359 1.1003,0.230296 1.519949,0.414532 0.665298,0.296825 0.997947,0.788122 0.332649,0.486179 0.332649,1.187301 0,1.049123 -0.721592,1.67348 -0.870005,0.752298 -2.154542,0.752298 -1.182183,0 -2.159659,-0.823946 l -0.598768,0.747181 h -0.37359 v -2.804486 h 0.445237 q 0.670416,2.40019 2.722604,2.40019 0.839299,0 1.305007,-0.383826 0.465709,-0.388943 0.465709,-0.967241 0,-0.404296 -0.204707,-0.675533 -0.204707,-0.276354 -0.634592,-0.445238 -0.235413,-0.09212 -1.16683,-0.291707 -1.253831,-0.276355 -1.791187,-0.568062 -0.532238,-0.296825 -0.783004,-0.721593 -0.250766,-0.429884 -0.250766,-1.044005 0,-1.033771 0.690886,-1.683716 0.696004,-0.655062 1.862834,-0.655062 1.120771,0 2.052188,0.772769 z"
           style="font-size:10.481px"
           id="path872" />
      </g>
      <g
         aria-label="of"
         id="text26890"
         style="font-size:7.38341px;line-height:1.25;font-family:'RM Albion';-inkscape-font-specification:'RM Albion';letter-spacing:0px;word-spacing:0px;stroke-width:0.184586">
        <path
           d="m 84.541004,46.624699 q 0.555198,0 0.940952,0.414596 0.38936,0.410991 0.38936,1.045503 0,0.547987 -0.277599,1.063528 -0.273994,0.511936 -0.706616,0.785929 -0.432621,0.273994 -0.89769,0.273994 -0.555197,0 -0.951767,-0.418201 -0.392965,-0.421806 -0.392965,-1.052713 0,-0.526356 0.281204,-1.038292 0.281204,-0.515541 0.717431,-0.79314 0.439832,-0.281204 0.89769,-0.281204 z m 0.01442,0.245153 q -0.270389,0 -0.547988,0.230731 -0.273993,0.227127 -0.497515,0.80035 -0.219916,0.573224 -0.219916,1.146448 0,0.443437 0.191075,0.681379 0.191075,0.237942 0.486699,0.237942 0.281204,0 0.547988,-0.223521 0.266783,-0.223522 0.49391,-0.814771 0.227126,-0.594855 0.227126,-1.164474 0,-0.421806 -0.19468,-0.656142 -0.191074,-0.237942 -0.486699,-0.237942 z"
           style="font-style:italic;font-family:'Century Schoolbook';-inkscape-font-specification:'Century Schoolbook'"
           id="path886" />
        <path
           d="m 87.919058,46.72925 h 0.764299 l -0.08292,0.302835 H 87.84335 l -0.648933,2.739937 q -0.227126,0.955373 -0.475884,1.543017 -0.212705,0.05768 -0.414596,0.136997 -0.245152,0.09374 -0.310045,0.09374 -0.05408,0 -0.05408,-0.05408 0,-0.03966 0.10455,-0.266783 0.273994,-0.602065 0.425412,-1.045502 0.151417,-0.439833 0.331676,-1.204131 l 0.465069,-1.943192 h -0.576829 l 0.07571,-0.302835 h 0.562408 q 0.205495,-0.717431 0.493909,-1.232972 0.29202,-0.519146 0.544383,-0.684984 0.255968,-0.169444 0.519146,-0.169444 0.237942,0 0.378544,0.129787 0.140602,0.129786 0.140602,0.324466 0,0.173048 -0.09373,0.281204 -0.09013,0.10455 -0.237942,0.10455 -0.118971,0 -0.198285,-0.0721 -0.07571,-0.07571 -0.122576,-0.277599 -0.03605,-0.155023 -0.136997,-0.155023 -0.133391,0 -0.237942,0.19468 -0.205495,0.392964 -0.457858,1.557438 z"
           style="font-style:italic;font-family:'Century Schoolbook';-inkscape-font-specification:'Century Schoolbook'"
           id="path888" />
      </g>
      <g
         aria-label="The"
         id="text31592"
         style="font-size:7.38341px;line-height:1.25;font-family:'RM Albion';-inkscape-font-specification:'RM Albion';letter-spacing:0px;word-spacing:0px;stroke-width:0.184586">
        <path
           d="m 57.654964,36.321331 h 4.401926 l -0.465068,1.957613 h -0.270389 q 0.10455,-0.497515 0.10455,-0.807561 0,-0.475884 -0.212705,-0.692194 -0.209101,-0.219916 -0.652538,-0.219916 -0.259573,0 -0.353308,0.0685 -0.09373,0.06489 -0.147812,0.263178 l -1.124816,4.192825 q -0.01082,0.03605 -0.01082,0.07571 0,0.108155 0.08292,0.165838 0.08292,0.05768 0.277599,0.05768 h 0.544382 l -0.0721,0.270389 h -2.628177 l 0.0685,-0.270389 h 0.501121 q 0.21631,0 0.320861,-0.0721 0.108155,-0.07571 0.147812,-0.227127 l 1.117606,-4.149563 q 0.02163,-0.07571 0.02163,-0.144207 0,-0.10455 -0.08652,-0.165838 -0.08653,-0.06489 -0.284809,-0.06489 -0.331677,0 -0.627302,0.173048 -0.295625,0.173049 -0.584039,0.569619 -0.169444,0.227126 -0.558803,0.977004 h -0.252363 z"
           style="font-style:italic;font-family:'Century Schoolbook';-inkscape-font-specification:'Century Schoolbook'"
           id="path891" />
        <path
           d="m 63.790982,36.252832 -0.865244,2.98509 q 0.742668,-1.063529 1.460098,-1.063529 0.324467,0 0.522752,0.198285 0.198285,0.19468 0.198285,0.529962 0,0.288414 -0.111761,0.638117 l -0.454253,1.420441 q -0.04687,0.144207 -0.04687,0.270389 0,0.07931 0.03966,0.126181 0.04326,0.04326 0.108155,0.04326 0.147813,0 0.317256,-0.176654 0.266784,-0.281204 0.483094,-0.782324 l 0.212706,0.0685 q -0.227126,0.591249 -0.566013,0.901295 -0.335282,0.30644 -0.630907,0.30644 -0.234337,0 -0.371334,-0.155023 -0.136996,-0.158628 -0.136996,-0.454252 0,-0.144208 0.05408,-0.313651 l 0.454253,-1.434862 q 0.05768,-0.191075 0.05768,-0.382149 0,-0.209101 -0.100945,-0.320861 -0.100945,-0.115366 -0.255968,-0.115366 -0.19468,0 -0.447042,0.173049 -0.382149,0.266783 -0.699405,0.753482 -0.317256,0.483095 -0.450648,0.973399 l -0.328071,1.211341 -0.605671,0.03605 1.373574,-4.78047 q 0.01803,-0.06129 0.01803,-0.122576 0,-0.09374 -0.09373,-0.144207 -0.09013,-0.05047 -0.364123,-0.05047 h -0.2091 l 0.07571,-0.270388 z"
           style="font-style:italic;font-family:'Century Schoolbook';-inkscape-font-specification:'Century Schoolbook'"
           id="path893" />
        <path
           d="m 66.765256,40.341107 q -0.01803,0.169444 -0.01803,0.284809 0,0.39657 0.191075,0.609276 0.194679,0.2091 0.526356,0.2091 0.259573,0 0.511936,-0.133391 0.252362,-0.136997 0.630906,-0.544383 l 0.165839,0.151418 q -0.68138,0.840007 -1.442073,0.840007 -0.519146,0 -0.876059,-0.389359 -0.356912,-0.38936 -0.356912,-0.99503 0,-0.533567 0.29923,-1.045503 0.29923,-0.515541 0.796745,-0.832796 0.50112,-0.320862 0.933741,-0.320862 0.371334,0 0.605671,0.216311 0.237942,0.212706 0.237942,0.522751 0,0.263179 -0.18747,0.526357 -0.183864,0.259573 -0.59846,0.465068 -0.41099,0.205495 -1.420441,0.436227 z m 0.05047,-0.234337 q 0.688589,-0.151417 0.980609,-0.31365 0.292019,-0.162234 0.439832,-0.403781 0.151417,-0.241547 0.151417,-0.50833 0,-0.212706 -0.11176,-0.331677 -0.108156,-0.118971 -0.29923,-0.118971 -0.346098,0 -0.670564,0.39657 -0.320861,0.392965 -0.490304,1.279839 z"
           style="font-style:italic;font-family:'Century Schoolbook';-inkscape-font-specification:'Century Schoolbook'"
           id="path895" />
      </g>
      <g
         id="g37229"
         transform="matrix(0.97353501,0,0,0.97353501,-2.11258,1.8270279)">
        <g
           aria-label="FLAG"
           id="text28280"
           style="font-size:16.7943px;line-height:1.25;font-family:'RM Albion';-inkscape-font-specification:'RM Albion';letter-spacing:0px;word-spacing:0px;stroke-width:0.419858">
          <path
             d="m 59.145242,62.873106 h 10.701446 l 0.123005,4.182174 h -0.73803 Q 69.034854,65.12 68.321425,64.381969 67.616195,63.635738 66.140134,63.635738 h -1.795875 q -0.393617,0 -0.574024,0.164006 -0.180408,0.164007 -0.180408,0.46742 v 4.059169 h 0.656028 q 1.959881,0 2.263294,-2.328897 h 0.71343 v 5.600834 h -0.71343 q -0.0328,-0.902038 -0.295212,-1.41866 -0.262411,-0.524821 -0.729831,-0.820034 -0.459219,-0.295212 -1.066044,-0.295212 h -0.828235 v 4.419984 q 0,0.352615 0.188608,0.516622 0.270612,0.23781 0.639627,0.23781 h 1.148048 v 0.762631 H 59.145242 V 74.23878 h 1.074245 q 0.377216,0 0.582224,-0.196809 0.205009,-0.205008 0.205009,-0.508421 v -9.266386 q 0,-0.352615 -0.205009,-0.492021 -0.196808,-0.139405 -0.820034,-0.139405 h -0.836435 z"
             style="font-weight:bold;font-family:'Century Schoolbook';-inkscape-font-specification:'Century Schoolbook'"
             id="path853" />
          <path
             d="m 71.068541,65.908832 v -0.610108 h 4.97927 v 0.610108 h -0.839718 q -0.360817,0 -0.505144,0.137766 -0.144326,0.137766 -0.144326,0.446101 v 7.216333 q 0,0.43954 0.137766,0.564186 0.137766,0.118085 0.64947,0.118085 h 1.397344 q 0.780676,0 1.456388,-0.741314 0.675711,-0.741314 1.036527,-2.368269 h 0.590428 l -0.223051,3.719691 h -8.534954 v -0.610108 h 0.85284 q 0.282093,0 0.42642,-0.144326 0.144326,-0.144327 0.144326,-0.406739 v -7.419703 q 0,-0.268972 -0.150887,-0.387057 -0.144326,-0.124646 -0.505143,-0.124646 z"
             style="font-size:13.4355px"
             id="path855" />
          <path
             d="m 85.678336,65.062553 3.640968,8.698961 q 0.157448,0.367377 0.341136,0.498583 0.183688,0.131206 0.485462,0.131206 h 0.354257 v 0.610108 h -4.55285 v -0.610108 h 0.426419 q 0.505144,0 0.695392,-0.111525 0.190249,-0.111525 0.190249,-0.295213 0,-0.144327 -0.07872,-0.334576 l -0.754435,-1.797523 h -3.621287 l -0.354257,0.820038 q -0.21649,0.511704 -0.21649,0.760995 0,0.42642 0.314895,0.695392 0.314894,0.262412 0.859399,0.262412 h 0.308335 v 0.610108 h -3.68033 v -0.610108 h 0.209929 q 0.354257,0 0.623229,-0.22305 0.380498,-0.314895 0.590428,-0.806917 l 3.48352,-8.298783 z m -1.056209,2.453553 -1.548231,3.69345 h 3.083342 z"
             style="font-size:13.4355px"
             id="path857" />
          <path
             d="m 99.008871,65.049432 h 0.465781 l 0.236171,3.877139 h -0.583867 q -0.465781,-1.73848 -1.266138,-2.506036 -0.793797,-0.774115 -1.771282,-0.774115 -0.747875,0 -1.364543,0.4461 -0.610108,0.446101 -0.957804,1.397345 -0.347696,0.944683 -0.347696,2.584759 0,1.843445 0.288653,2.742207 0.288653,0.898761 0.879081,1.338301 0.590427,0.43298 1.357982,0.43298 1.010287,0 1.581033,-0.570746 0.570747,-0.570746 0.570747,-1.51543 v -0.885641 q 0,-0.242731 -0.131206,-0.360816 -0.124646,-0.124646 -0.367377,-0.124646 h -1.016847 v -0.596988 h 4.697181 v 0.596988 h -0.59043 q -0.3149,0 -0.45922,0.131206 -0.13777,0.124646 -0.13777,0.354256 v 3.575365 h -0.511703 l -0.820038,-1.633515 q -0.551065,0.852839 -1.285819,1.246457 -0.728194,0.393619 -1.718799,0.393619 -1.318621,0 -2.401071,-0.62979 -1.08245,-0.629789 -1.672878,-1.725359 -0.590427,-1.095571 -0.590427,-2.630682 0,-2.263304 1.390784,-3.713131 1.390785,-1.449827 3.404798,-1.449827 0.747874,0 1.331741,0.22305 0.583867,0.21649 1.239897,0.767556 z"
             style="font-size:13.4355px"
             id="path859" />
        </g>
        <g
           id="g32603"
           transform="matrix(0.58168743,0,0,0.58168743,41.563862,39.324659)">
          <path
             id="path15391"
             style="fill:#000000;fill-opacity:1;stroke-width:3.81339;stroke-linecap:round;stroke-linejoin:round;stop-color:#000000"
             d="m 25.08015,48.577422 h -0.65733 c -0.35559,0.45609 -0.83175,0.80355 -1.37459,1.00304 0.13479,0.48747 0.20378,0.99078 0.20515,1.49655 -0.001,0.50594 -0.0703,1.00942 -0.20515,1.497059 0.5429,0.19964 1.01907,0.54728 1.37459,1.00356 h 0.65733 z m -5.00022,-5.00021 h -4.99969 v 0.65732 c 0.4561,0.3556 0.80355,0.83176 1.00304,1.3746 0.48764,-0.13484 0.99113,-0.20384 1.49707,-0.20516 0.50594,10e-4 1.00942,0.0703 1.49706,0.20516 0.19935,-0.54278 0.54662,-1.01893 1.00252,-1.3746 z m 0,14.342789 c -0.4559,-0.35566 -0.80317,-0.83182 -1.00252,-1.37459 -0.48766,0.13466 -0.99115,0.20348 -1.49706,0.20464 -0.50612,-6e-5 -1.00996,-0.0678 -1.4981,-0.20154 -0.19971,0.54158 -0.54676,1.0166 -1.00201,1.37149 v 0.65733 h 4.99969 z m -7.96798,-8.339539 c -0.54284,-0.19949 -1.019,-0.54694 -1.3746,-1.00304 h -0.65732 v 5.000209 h 0.65732 c 0.35482,-0.45544 0.82984,-0.80267 1.37149,-1.00252 -0.1337,-0.488139 -0.20148,-0.991979 -0.20153,-1.498099 10e-4,-0.50574 0.07,-1.00905 0.20464,-1.49655 z"
             sodipodi:nodetypes="cccccccccccccccccccccccccccccccc"
             inkscape:export-filename="C:\Users\Garrett\Pictures\Ornate Christian Flag 3.png"
             inkscape:export-xdpi="400"
             inkscape:export-ydpi="400" />
          <g
             id="g15419"
             transform="matrix(0,0.49664007,-0.49664007,0,90.44467,39.110382)"
             style="fill:#000000"
             inkscape:export-filename="C:\Users\Garrett\Pictures\Ornate Christian Flag 3.png"
             inkscape:export-xdpi="400"
             inkscape:export-ydpi="400">
            <path
               id="path15393"
               style="fill:#000000;fill-opacity:1;stroke:none;stroke-width:9.99999;stroke-linecap:round;stroke-linejoin:round;stop-color:#000000"
               d="M 91.070312,511.33984 A 43.173837,43.173837 0 0 0 47.896484,554.51367 43.173837,43.173837 0 0 0 91.070312,597.6875 43.173837,43.173837 0 0 0 134.24414,554.51367 43.173837,43.173837 0 0 0 91.070312,511.33984 Z m 0,19.5625 A 23.610693,23.610693 0 0 1 114.67969,554.51367 23.610693,23.610693 0 0 1 91.070312,578.125 23.610693,23.610693 0 0 1 67.458984,554.51367 23.610693,23.610693 0 0 1 91.070312,530.90234 Z"
               transform="scale(0.26458333)" />
            <g
               id="g15399"
               transform="translate(0,-0.29724666)"
               style="fill:#000000">
              <path
                 id="path15395"
                 style="fill:#000000;stroke-width:2.64583;stroke-linecap:round;stroke-linejoin:round;stop-color:#000000"
                 inkscape:transform-center-y="-0.96698443"
                 d="M 27.445413,137.98658 H 20.745959 L 24.095686,127.9567 Z"
                 sodipodi:nodetypes="cccc" />
              <path
                 id="path15397"
                 style="fill:#000000;stroke-width:2.64583;stroke-linecap:round;stroke-linejoin:round;stop-color:#000000"
                 inkscape:transform-center-y="0.96698443"
                 d="m 27.445413,156.03806 h -6.699454 l 3.349727,10.02988 z"
                 sodipodi:nodetypes="cccc" />
            </g>
            <g
               id="g15405"
               transform="rotate(90,24.244309,146.8637)"
               style="fill:#000000">
              <path
                 id="path15401"
                 style="fill:#000000;stroke-width:2.64583;stroke-linecap:round;stroke-linejoin:round;stop-color:#000000"
                 inkscape:transform-center-y="-0.96698443"
                 d="M 27.445413,137.98658 H 20.745959 L 24.095686,127.9567 Z"
                 sodipodi:nodetypes="cccc" />
              <path
                 id="path15403"
                 style="fill:#000000;stroke-width:2.64583;stroke-linecap:round;stroke-linejoin:round;stop-color:#000000"
                 inkscape:transform-center-y="0.96698443"
                 d="m 27.445413,156.03806 h -6.699454 l 3.349727,10.02988 z"
                 sodipodi:nodetypes="cccc" />
            </g>
            <g
               id="g15411"
               transform="rotate(135,24.157249,146.8637)"
               style="fill:#000000">
              <path
                 id="path15407"
                 style="fill:#000000;stroke-width:2.64583;stroke-linecap:round;stroke-linejoin:round;stop-color:#000000"
                 inkscape:transform-center-y="-0.96698443"
                 d="M 27.445413,137.98658 H 20.745959 L 24.095686,127.9567 Z"
                 sodipodi:nodetypes="cccc" />
              <path
                 id="path15409"
                 style="fill:#000000;stroke-width:2.64583;stroke-linecap:round;stroke-linejoin:round;stop-color:#000000"
                 inkscape:transform-center-y="0.96698443"
                 d="m 27.445413,156.03806 h -6.699454 l 3.349727,10.02988 z"
                 sodipodi:nodetypes="cccc" />
            </g>
            <g
               id="g15417"
               transform="matrix(0.70710678,0.70710678,0.70710678,-0.70710678,-96.895941,233.63026)"
               style="fill:#000000">
              <path
                 id="path15413"
                 style="fill:#000000;stroke-width:2.64583;stroke-linecap:round;stroke-linejoin:round;stop-color:#000000"
                 inkscape:transform-center-y="-0.96698443"
                 d="M 27.445413,137.98658 H 20.745959 L 24.095686,127.9567 Z"
                 sodipodi:nodetypes="cccc" />
              <path
                 id="path15415"
                 style="fill:#000000;stroke-width:2.64583;stroke-linecap:round;stroke-linejoin:round;stop-color:#000000"
                 inkscape:transform-center-y="0.96698443"
                 d="m 27.445413,156.03806 h -6.699454 l 3.349727,10.02988 z"
                 sodipodi:nodetypes="cccc" />
            </g>
          </g>
          <circle
             style="fill:#000000;fill-opacity:1;stroke:none;stroke-width:2.64583;stroke-linecap:round;stroke-linejoin:round;stop-color:#000000"
             id="circle15421"
             cx="51.077286"
             cy="-17.58007"
             r="2.0079627"
             inkscape:export-filename="C:\Users\Garrett\Pictures\Ornate Christian Flag 3.png"
             inkscape:export-xdpi="400"
             inkscape:export-ydpi="400"
             transform="rotate(90)" />
        </g>
      </g>
    </g>
  </g>
</svg>
